HIERARCHY
ROOT Hips
{
	OFFSET 0.000000 0.000000 0.000000
	CHANNELS 6 Xposition Yposition Zposition Zrotation Xrotation Yrotation
	JOINT RightUpLeg
	{
		OFFSET -10.032200 0.000000 0.000000
		CHANNELS 3 Zrotation Xrotation Yrotation
		JOINT RightLeg
		{
			OFFSET 0.000000 -40.977000 0.000000
			CHANNELS 3 Zrotation Xrotation Yrotation
			JOINT RightFoot
			{
				OFFSET 0.000000 -38.933200 0.000000
				CHANNELS 3 Zrotation Xrotation Yrotation
				JOINT RightToe
				{
					OFFSET 0.000000 -1.977400 9.184000
					CHANNELS 3 Zrotation Xrotation Yrotation
					JOINT RightToeEnd
					{
						OFFSET 0.000000 2.335600 6.099100
						CHANNELS 3 Zrotation Xrotation Yrotation
						End Site
						{
						    OFFSET 0.000000 1.788000 4.669400
						}
					}
				}
			}
		}
	}
	JOINT LeftUpLeg
	{
		OFFSET 10.032200 0.000000 0.000000
		CHANNELS 3 Zrotation Xrotation Yrotation
		JOINT LeftLeg
		{
			OFFSET 0.000000 -40.977000 0.000000
			CHANNELS 3 Zrotation Xrotation Yrotation
			JOINT LeftFoot
			{
				OFFSET 0.000000 -38.933200 0.000000
				CHANNELS 3 Zrotation Xrotation Yrotation
				JOINT LeftToe
				{
					OFFSET 0.000000 -1.977400 9.184000
					CHANNELS 3 Zrotation Xrotation Yrotation
					JOINT LeftToeEnd
					{
						OFFSET 0.000000 2.335600 6.099100
						CHANNELS 3 Zrotation Xrotation Yrotation
						End Site
						{
						    OFFSET 0.000000 1.788000 4.669400
						}
					}
				}
			}
		}
	}
	JOINT Spine
	{
		OFFSET 0.000000 16.960900 0.000000
		CHANNELS 3 Zrotation Xrotation Yrotation
		JOINT Spine1
		{
			OFFSET 0.000000 13.413900 0.000000
			CHANNELS 3 Zrotation Xrotation Yrotation
			JOINT Spine2
			{
				OFFSET 0.000000 10.384400 0.000000
				CHANNELS 3 Zrotation Xrotation Yrotation
				JOINT LeftShoulder
				{
					OFFSET 2.000000 10.384400 0.000000
					CHANNELS 3 Zrotation Xrotation Yrotation
					JOINT LeftArm
					{
						OFFSET 15.649100 0.000000 0.000000
						CHANNELS 3 Zrotation Xrotation Yrotation
						JOINT LeftForeArm
						{
							OFFSET 0.000000 -26.641600 0.000000
							CHANNELS 3 Zrotation Xrotation Yrotation
							JOINT LeftHand
							{
								OFFSET 0.000000 -23.740600 0.000000
								CHANNELS 3 Zrotation Xrotation Yrotation
								JOINT LeftFinger0
								{
									OFFSET 0.000000 -7.620900 0.000000
									CHANNELS 3 Zrotation Xrotation Yrotation
									End Site
									{
									    OFFSET 0.000000 -5.000000 0.000000
									}
								}
							}
						}
					}
				}
				JOINT RightShoulder
				{
					OFFSET -2.000000 10.384400 0.000000
					CHANNELS 3 Zrotation Xrotation Yrotation
					JOINT RightArm
					{
						OFFSET -15.649100 0.000000 0.000000
						CHANNELS 3 Zrotation Xrotation Yrotation
						JOINT RightForeArm
						{
							OFFSET 0.000000 -26.641600 0.000000
							CHANNELS 3 Zrotation Xrotation Yrotation
							JOINT RightHand
							{
								OFFSET 0.000000 -23.740600 0.000000
								CHANNELS 3 Zrotation Xrotation Yrotation
								JOINT RightFinger0
								{
									OFFSET 0.000000 -7.620900 0.000000
									CHANNELS 3 Zrotation Xrotation Yrotation
									End Site
									{
									    OFFSET 0.000000 -5.000000 0.000000
									}
								}
							}
						}
					}
				}
				JOINT Neck
				{
					OFFSET 0.000000 10.384400 0.000000
					CHANNELS 3 Zrotation Xrotation Yrotation
					JOINT Head
					{
						OFFSET 0.000000 10.146900 0.000000
						CHANNELS 3 Zrotation Xrotation Yrotation
						JOINT HeadTip
						{
							OFFSET 0.000000 10.000000 0.000000
							CHANNELS 3 Zrotation Xrotation Yrotation
							End Site
							{
							    OFFSET 0.000000 5.000000 0.000000
							}
						}
					}
				}
			}
		}
	}
}
MOTION
Frames:	14
Frame Time:	0.033332
79.373400 82.603200 -100.437800 -8.686303 2.417042 15.918705 3.153889 -27.139539 -30.585819 0.000000 52.174197 0.000000 5.763605 10.139076 -10.482604 -0.000000 -3.610234 0.000000 0.000000 0.000000 -0.000000 10.770111 -34.545081 23.573488 0.000000 29.517536 -0.000000 3.287584 21.815308 -9.448006 -0.000000 3.293997 -0.000000 0.000000 0.000000 0.000000 -20.377736 28.684905 6.573010 -0.000000 9.804160 -0.000000 -0.000000 -0.000000 -0.000000 5.790201 0.000000 -3.932197 34.578407 -69.972989 -1.364682 180.000037 -87.407617 180.000037 20.650623 1.328827 -18.859477 -0.000000 0.000000 -0.000000 -20.869395 0.000000 5.982981 -32.816849 1.388544 -46.961411 -179.999905 -40.993665 -179.999684 -21.206428 6.518939 30.499988 -0.000000 0.000000 0.000000 -0.000000 -0.000000 -0.000000 9.707420 35.116516 -19.242637 -0.000000 0.000000 0.000000 
80.225900 82.076900 -101.291700 -7.173945 2.739902 16.946324 3.838818 -21.949045 -30.280704 -0.000000 45.722979 -0.000000 6.418016 11.336037 -9.852158 0.000000 -10.485493 -0.000000 0.000000 0.000000 -0.000000 7.821588 -35.085427 22.646594 0.000000 29.485557 -0.000000 3.634799 21.923601 -9.964589 0.000000 3.892096 -0.000000 0.000000 0.000000 -0.000000 -20.267887 27.714534 7.691678 0.000000 10.363168 -0.000000 -0.000000 -0.000000 -0.000000 6.203070 0.000000 -2.311246 32.512248 -67.463884 -6.248209 -180.000037 -87.195451 -180.000037 19.342908 3.541264 -12.416108 0.000000 -0.000000 0.000000 -20.121608 -0.000000 5.789385 -29.715104 0.828774 -46.127202 -179.999907 -40.525278 -179.999685 -20.133997 6.391751 32.818442 -0.000000 0.000000 0.000000 -0.000000 -0.000000 -0.000000 11.587459 35.671007 -22.511481 -0.000000 0.000000 -0.000000 
81.029500 81.383600 -102.247900 -6.112513 2.917883 17.741760 4.815376 -16.801733 -30.473804 0.000000 36.774501 -0.000000 2.332849 0.620204 -7.392423 0.000000 -9.691654 -0.000000 0.000000 -0.000000 -0.000000 5.906280 -36.151218 22.542680 -0.000000 30.631602 -0.000000 3.901331 21.968943 -10.756230 -0.000000 4.038898 -0.000000 -0.000000 0.000000 0.000000 -19.623338 26.759369 8.908972 0.000000 10.770055 -0.000000 -0.000000 0.000000 -0.000000 6.526526 0.000000 -1.506533 31.062967 -66.250511 -11.363050 -180.000037 -86.382952 -180.000037 18.335033 3.231910 -11.777215 0.000000 -0.000000 -0.000000 -19.222320 -0.000000 5.401217 -29.147760 0.834280 -46.562990 -179.999909 -40.094334 -179.999687 -20.000688 6.241215 33.433965 -0.000000 -0.000000 -0.000000 -0.000000 0.000000 -0.000000 12.768097 35.720860 -25.866334 -0.000000 -0.000000 -0.000000 
81.752000 80.920700 -103.513100 -5.994184 2.771172 17.096302 6.197867 -15.427578 -28.089074 0.000000 32.827142 0.000000 -0.823351 -4.573704 -10.182709 -0.000000 -5.866183 0.000000 -0.000000 -0.000000 0.000000 6.338464 -37.138119 24.603069 0.000000 31.945758 -0.000000 3.609788 22.635487 -12.065641 -0.000000 4.038091 0.000000 -0.000000 0.000000 -0.000000 -18.586650 26.055481 10.489744 0.000000 10.924750 0.000000 0.000000 0.000000 0.000000 6.359295 0.000000 -1.329974 30.956762 -66.411043 -14.986709 -180.000037 -85.206828 180.000037 17.746297 1.975544 -14.311086 -0.000000 0.000000 0.000000 -19.312295 -0.000000 5.281387 -30.321441 0.382449 -47.500681 -179.999910 -40.048162 -179.999687 -20.618893 5.120557 36.005323 -0.000000 0.000000 -0.000000 0.000000 0.000000 0.000000 12.325483 35.535976 -27.380018 -0.000000 0.000000 0.000000 
82.661900 81.046500 -105.018200 -6.200264 1.926388 14.855707 5.654032 -17.104288 -25.777313 -0.000000 35.325633 -0.000000 0.044129 -2.118845 -10.950114 0.000000 -4.347698 0.000000 -0.000000 0.000000 -0.000000 7.946262 -36.765315 27.677878 -0.000000 32.085879 -0.000000 3.124834 24.819614 -13.854501 -0.000000 4.363874 -0.000000 -0.000000 -0.000000 -0.000000 -18.335584 26.268811 11.383078 0.000000 10.901021 -0.000000 0.000000 -0.000000 -0.000000 5.984912 -0.000000 -1.567250 31.939262 -67.072671 -15.394511 -180.000037 -84.338034 -180.000037 15.718228 1.324734 -15.720035 -0.000000 0.000000 0.000000 -20.093000 0.000000 6.124137 -32.858836 -2.198642 -47.781558 -179.999905 -41.145937 -179.999684 -20.663892 4.173845 40.226970 -0.000000 0.000000 0.000000 0.000000 -0.000000 -0.000000 10.442166 36.138339 -25.918015 -0.000000 0.000000 0.000000 
83.449600 81.395800 -106.233500 -6.575884 1.041183 13.882274 5.050514 -15.588702 -28.322935 -0.000000 33.315826 -0.000000 0.441949 -0.894042 -6.713168 -0.000000 -4.391347 -0.000000 0.000000 0.000000 -0.000000 9.850117 -36.197271 31.545084 0.000000 32.233056 -0.000000 2.227422 27.931735 -18.219316 0.000000 5.650296 -0.000000 0.000000 0.000000 0.000000 -18.595596 26.336381 9.933258 -0.000000 10.966995 -0.000000 0.000000 -0.000000 -0.000000 6.608694 0.000000 -2.233790 31.360011 -68.095234 -15.593460 -180.000037 -84.836918 180.000037 15.622981 0.380465 -16.836461 0.000000 -0.000000 0.000000 -19.817893 -0.000000 7.240632 -36.980023 -5.400361 -47.267626 -179.999894 -43.356556 -179.999676 -19.928791 3.542606 45.502708 0.000000 0.000000 -0.000000 0.000000 -0.000000 -0.000000 10.413954 37.831775 -25.018535 0.000000 0.000000 -0.000000 
84.098100 81.872100 -107.464000 -7.424622 0.958819 13.885039 5.124739 -15.209469 -29.970005 -0.000000 31.095457 -0.000000 1.412446 1.170890 -4.282616 0.000000 -3.941332 -0.000000 0.000000 0.000000 0.000000 12.698601 -36.959118 35.539729 -0.000000 33.129020 -0.000000 -3.307771 33.342586 -21.163885 0.000000 5.735076 -0.000000 -0.000000 0.000000 -0.000000 -18.061906 26.004722 8.326856 -0.000000 10.927866 -0.000000 -0.000000 0.000000 0.000000 6.837362 0.000000 -3.320141 29.620991 -70.615168 -16.988927 -180.000037 -87.143726 180.000037 16.884684 -0.703737 -18.687622 -0.000000 0.000000 -0.000000 -20.325110 0.000000 6.102929 -39.345231 -7.478812 -46.008821 -179.999888 -44.523672 -179.999672 -17.640981 4.391350 51.923176 -0.000000 -0.000000 -0.000000 -0.000000 0.000000 0.000000 11.017230 37.794689 -26.309879 0.000000 0.000000 0.000000 
85.041100 82.436800 -108.739800 -7.770976 1.433842 13.275332 4.655468 -15.378575 -30.887648 -0.000000 28.982954 -0.000000 1.925056 3.552640 -2.309498 0.000000 -3.365245 -0.000000 -0.000000 -0.000000 -0.000000 15.016352 -37.882528 36.538892 -0.000000 34.121156 -0.000000 -11.215039 37.575495 -17.902459 -0.000000 4.552039 0.000000 -0.000000 0.000000 0.000000 -18.305886 25.700474 7.240479 -0.000000 10.481628 -0.000000 -0.000000 0.000000 -0.000000 6.271037 0.000000 -4.475312 29.602343 -72.875460 -16.939376 180.000037 -88.907944 180.000037 16.868458 -0.071961 -19.170417 0.000000 -0.000000 -0.000000 -20.878245 -0.000000 5.475788 -41.238009 -6.498829 -45.923507 -179.999889 -44.269889 -179.999673 -16.043178 5.792768 53.122714 0.000000 0.000000 -0.000000 -0.000000 0.000000 -0.000000 10.703843 36.069006 -26.921615 -0.000000 0.000000 -0.000000 
86.229300 83.051600 -109.879100 -7.511848 1.954961 12.123510 3.640903 -15.290861 -31.426236 -0.000000 26.765239 -0.000000 2.657304 5.897723 -0.112963 -0.000000 -2.766790 -0.000000 -0.000000 -0.000000 0.000000 17.149703 -38.319609 34.716068 0.000000 36.867060 -0.000000 -11.412005 31.441529 -10.100454 -0.000000 2.214448 -0.000000 0.000000 0.000000 0.000000 -19.616874 25.540308 6.282705 0.000000 10.064428 -0.000000 -0.000000 0.000000 0.000000 5.898125 0.000000 -5.119881 30.004433 -73.954330 -16.089373 -180.000037 -89.319873 -180.000037 16.157110 0.248460 -19.094344 0.000000 0.000000 0.000000 -19.882802 0.000000 4.976525 -44.114088 -4.984922 -46.024591 -179.999890 -44.217010 -179.999673 -15.774519 6.049646 50.325222 -0.000000 0.000000 -0.000000 -0.000000 0.000000 0.000000 10.067487 33.499637 -26.183958 -0.000000 0.000000 -0.000000 
87.745600 83.637200 -110.971900 -7.069040 2.648450 9.935095 2.545634 -15.584700 -30.820897 0.000000 24.841258 -0.000000 3.011870 8.308523 1.103637 0.000000 -1.633359 -0.000000 -0.000000 0.000000 -0.000000 19.603723 -37.624913 32.281204 0.000000 38.927565 -0.000000 -8.915771 25.489009 -4.100443 -0.000000 0.161491 -0.000000 0.000000 0.000000 -0.000000 -21.193317 24.937906 5.954858 -0.000000 9.719266 -0.000000 -0.000000 0.000000 -0.000000 5.519083 0.000000 -5.445660 29.144355 -73.646669 -15.877430 -180.000037 -88.837176 -180.000037 15.356540 -0.018968 -18.953799 -0.000000 0.000000 0.000000 -18.969226 -0.000000 4.577581 -45.593469 -3.103412 -45.535733 -179.999890 -44.120513 -179.999674 -16.077454 6.386378 47.176357 -0.000000 0.000000 -0.000000 -0.000000 0.000000 -0.000000 8.689662 31.804487 -25.245840 0.000000 0.000000 -0.000000 
89.478900 84.107600 -111.820600 -6.661902 2.982012 7.887511 1.542679 -15.560123 -29.695634 0.000000 23.066592 -0.000000 3.562899 10.481504 1.081127 -0.000000 -0.669181 -0.000000 0.000000 -0.000000 0.000000 21.311781 -35.715872 28.213544 0.000000 39.282690 -0.000000 -6.388644 22.121654 0.356571 -0.000000 -1.050320 -0.000000 -0.000000 -0.000000 -0.000000 -22.404958 24.661420 5.483981 0.000000 9.636302 0.000000 0.000000 -0.000000 -0.000000 5.346929 -0.000000 -5.121151 26.719650 -72.666145 -17.033837 -180.000037 -88.065085 -180.000037 15.224074 0.128570 -18.563396 -0.000000 0.000000 -0.000000 -17.967046 0.000000 3.927871 -45.866284 -1.106335 -44.394366 -179.999890 -44.059710 -179.999674 -15.952947 6.570783 46.049966 -0.000000 0.000000 0.000000 0.000000 -0.000000 -0.000000 7.671678 29.999602 -24.435862 -0.000000 0.000000 0.000000 
91.281200 84.374700 -112.492100 -6.723314 3.228874 6.618777 0.830075 -15.445354 -29.196604 -0.000000 21.428372 -0.000000 4.188269 12.149528 1.151357 0.000000 0.284999 -0.000000 0.000000 0.000000 -0.000000 23.067482 -33.095246 24.969963 -0.000000 37.870244 0.000000 -4.344032 20.671100 3.424193 -0.000000 -1.371095 -0.000000 -0.000000 -0.000000 -0.000000 -22.583351 24.706723 4.714639 0.000000 9.645680 0.000000 -0.000000 0.000000 -0.000000 5.257340 0.000000 -4.795741 24.097163 -71.129628 -18.455215 -180.000037 -87.224445 -180.000037 14.908374 0.765416 -17.742153 0.000000 0.000000 0.000000 -16.404208 0.000000 2.687047 -45.924017 0.973547 -43.388954 -179.999891 -43.933666 -179.999674 -15.140327 6.772838 46.412044 -0.000000 -0.000000 0.000000 -0.000000 0.000000 -0.000000 7.527025 27.742633 -24.548027 0.000000 0.000000 -0.000000 
93.205700 84.395300 -113.162200 -7.107529 3.874222 5.418544 0.042313 -16.166689 -29.043718 -0.000000 20.718181 0.000000 4.816322 13.434972 1.417845 0.000000 1.156959 0.000000 0.000000 -0.000000 -0.000000 25.170976 -30.111087 24.059217 0.000000 34.910808 -0.000000 -3.196607 20.313749 5.756062 -0.000000 -1.457077 0.000000 0.000000 0.000000 -0.000000 -22.162759 24.502869 3.407763 -0.000000 9.587977 0.000000 -0.000000 0.000000 0.000000 5.332595 0.000000 -3.668058 21.137320 -68.908520 -20.236910 180.000037 -86.299726 -180.000037 14.859786 1.462914 -16.492440 -0.000000 0.000000 -0.000000 -14.915138 0.000000 1.713487 -45.221214 2.648171 -43.039885 -179.999891 -44.022117 -179.999674 -14.589447 6.545243 47.024617 0.000000 -0.000000 0.000000 -0.000000 0.000000 0.000000 7.277512 25.499823 -24.547800 -0.000000 0.000000 -0.000000 
95.363800 84.095800 -113.775400 -7.645197 4.495170 4.182621 -1.077053 -17.623511 -28.905189 0.000000 21.634987 -0.000000 5.329010 14.147388 1.480494 -0.000000 1.558688 -0.000000 -0.000000 0.000000 -0.000000 26.822056 -26.628228 23.976685 0.000000 30.770309 -0.000000 -4.479495 25.073141 8.076361 -0.000000 -1.078162 -0.000000 -0.000000 0.000000 -0.000000 -21.287186 24.281684 2.202190 0.000000 9.454375 -0.000000 0.000000 -0.000000 0.000000 5.448956 -0.000000 -2.964903 20.047886 -66.403002 -20.731409 -180.000037 -85.279050 -180.000037 15.163452 2.210536 -15.632987 0.000000 0.000000 0.000000 -14.173088 -0.000000 1.588497 -43.545755 4.701602 -44.456087 -179.999890 -44.060967 -179.999674 -14.342259 6.761462 47.422179 -0.000000 0.000000 0.000000 0.000000 -0.000000 0.000000 7.566040 24.029104 -24.345261 0.000000 0.000000 -0.000000 
